<?xml version="1.0" encoding="UTF-8" standalone="no"?>
<!-- Created with Inkscape (http://www.inkscape.org/) -->

<svg
   width="136.84126mm"
   height="31.030148mm"
   viewBox="0 0 136.84126 31.030148"
   version="1.1"
   id="svg1"
   xmlns="http://www.w3.org/2000/svg"
   xmlns:svg="http://www.w3.org/2000/svg">
  <defs
     id="defs1" />
  <g
     id="layer1"
     transform="translate(-37.806996,-135.56072)">
    <path
       id="text1"
       style="-inkscape-font-specification:'Noto Sans KR, @wght=400';fill:#ffffff"
       d="m 138.76061,195.57077 v 117.2793 h 14.7207 v -46.71875 h 19.35937 c 8.53333,0 16.05388,-1.27984 22.56055,-3.83984 6.50667,-2.66667 11.57255,-6.66667 15.19922,-12 3.62667,-5.33333 5.44141,-12.10698 5.44141,-20.32031 0,-8.53333 -1.81474,-15.30699 -5.44141,-20.32032 -3.62667,-5.01333 -8.74604,-8.58737 -15.35937,-10.7207 -6.61333,-2.24 -14.29435,-3.35938 -23.04102,-3.35938 z m 127.79883,0 -39.67969,117.2793 h 14.8789 l 11.41797,-36.00976 42.83399,0.16992 11.18945,35.83984 h 15.67969 L 283.0399,195.57077 Z m 84.83984,0 v 117.2793 h 14.7207 v -49.75976 h 21.28125 l 28.31836,49.75976 h 16.64063 l -29.30274,-51.52344 c 2.11835,-0.53093 4.17584,-1.13896 6.10157,-1.91601 6.18667,-2.56 11.04054,-6.39953 14.56054,-11.51953 3.52,-5.22667 5.2793,-11.73286 5.2793,-19.51953 0,-8.10667 -1.7593,-14.56133 -5.2793,-19.36133 -3.52,-4.8 -8.37387,-8.21357 -14.56054,-10.24024 -6.08,-2.13333 -13.11914,-3.19922 -21.11914,-3.19922 z m 136.35742,0 -39.68164,117.2793 h 14.88086 l 11.38281,-35.90039 42.88672,0.1211 11.16993,35.77929 h 15.67968 l -39.83984,-117.2793 z m 84.83985,0 v 117.2793 h 13.91992 v -61.59961 c 0,-6.18667 -0.21395,-12.32039 -0.64062,-18.40039 -0.42667,-6.18667 -0.79914,-12.21341 -1.11914,-18.08008 h 0.63867 l 12.64062,24 42.72071,74.08008 h 15.19921 v -117.2793 h -14.08007 v 60.96094 c 0,6.08 0.21395,12.31875 0.64062,18.71875 0.42667,6.4 0.90612,12.53372 1.43945,18.40039 h -0.80078 L 630.51647,269.4907 587.63561,195.57077 Z m -419.11524,12 h 16.79883 c 10.34667,0 18.08117,1.60079 23.20117,4.80079 5.22667,3.2 7.83984,9.06628 7.83984,17.59961 0,8.42667 -2.5062,14.56039 -7.51953,18.40039 -5.01333,3.84 -12.64086,5.75976 -22.88086,5.75976 h -17.43945 z m 120.75781,0 h 0.64063 c 1.92,6.82667 3.83976,13.49333 5.75976,20 1.92,6.4 3.94675,12.95969 6.08008,19.67969 l 5.53906,17.74024 -35.48632,0.50976 5.78711,-18.25 c 2.02667,-6.72 3.99992,-13.27969 5.91992,-19.67969 2.02667,-6.50667 3.94643,-13.17333 5.75976,-20 z m 91.88086,0 h 19.67969 c 9.17333,0 16.21247,1.5473 21.11914,4.64063 4.90667,3.09333 7.36133,8.48016 7.36133,16.16016 0,7.68 -2.45466,13.43929 -7.36133,17.27929 -4.90667,3.73333 -11.94581,5.59961 -21.11914,5.59961 h -19.67969 z m 129.31641,0 h 0.63867 c 1.92,6.82667 3.84172,13.49333 5.76172,20 1.92,6.4 3.94675,12.95969 6.08008,19.67969 l 5.68164,18.20313 -35.78711,0.54492 5.94531,-18.74805 c 2.02667,-6.72 3.99993,-13.27969 5.91993,-19.67969 2.02667,-6.50667 3.94643,-13.17333 5.75976,-20 z"
       transform="matrix(0.26458333,0,0,0.26458333,1.0932515,83.815951)" />
  </g>
</svg>
